<?xml version="1.0" standalone="no"?>
<!DOCTYPE svg PUBLIC "-//W3C//DTD SVG 20010904//EN"
 "http://www.w3.org/TR/2001/REC-SVG-20010904/DTD/svg10.dtd">
<svg version="1.0" xmlns="http://www.w3.org/2000/svg"
 width="1275.000000pt" height="1275.000000pt" viewBox="0 0 1275.000000 1275.000000"
 preserveAspectRatio="xMidYMid meet">
<metadata>
Created by potrace 1.11, written by Peter Selinger 2001-2013
</metadata>
<g transform="translate(0.000000,1275.000000) scale(0.100000,-0.100000)"
fill="#000000" stroke="none">
<path d="M9480 9440 c-221 -8 -379 -17 -440 -25 -19 -2 -89 -9 -155 -15 -66
-6 -174 -20 -240 -31 -66 -11 -149 -25 -184 -30 -35 -5 -66 -11 -70 -14 -4 -2
-90 -25 -191 -51 -213 -54 -324 -99 -446 -181 -184 -123 -393 -403 -484 -647
l-22 -58 -22 20 c-76 68 -343 214 -506 275 -240 91 -641 140 -869 107 -40 -5
-78 -13 -85 -17 -21 -11 -139 -88 -316 -205 -218 -145 -503 -304 -845 -472
-193 -95 -209 -102 -420 -199 -117 -53 -157 -72 -525 -239 -96 -44 -188 -88
-205 -97 -64 -39 -355 -191 -575 -302 -58 -29 -154 -80 -215 -114 -60 -34
-182 -102 -270 -150 -88 -49 -187 -106 -219 -128 -77 -52 -175 -107 -190 -107
-6 0 -38 27 -71 60 -33 34 -81 74 -106 90 -69 45 -229 109 -290 116 -30 3 -74
10 -98 14 -25 4 -49 7 -55 5 -6 -2 -47 -6 -91 -9 -68 -4 -186 -30 -300 -64
-70 -21 -238 -118 -348 -200 -193 -144 -278 -242 -370 -427 -121 -244 -169
-424 -175 -655 -4 -146 -2 -162 27 -280 36 -147 101 -287 158 -341 21 -20 96
-73 166 -119 183 -117 364 -198 495 -221 39 -7 72 -16 72 -21 0 -4 9 -8 20 -8
11 0 53 -9 93 -21 39 -11 107 -22 150 -24 76 -5 125 -21 187 -65 14 -10 129
-71 255 -136 314 -161 512 -237 815 -314 47 -12 88 -25 91 -28 4 -4 10 -42 13
-85 14 -171 143 -487 245 -600 56 -62 360 -254 517 -327 270 -125 446 -126
749 -6 260 103 466 254 637 466 169 209 244 371 297 640 28 143 37 263 29 398
-5 93 -12 131 -43 219 -41 119 -73 172 -148 250 -28 29 -49 54 -46 56 2 3 81
14 174 26 168 22 224 30 360 57 39 7 88 16 110 19 22 3 112 23 200 45 144 35
330 78 502 115 55 12 211 54 493 132 47 13 146 39 220 58 231 59 588 163 750
219 85 30 166 57 180 61 193 52 619 198 930 317 135 52 283 109 330 127 47 18
92 35 101 37 16 6 21 -6 49 -130 13 -58 59 -151 95 -194 33 -39 132 -117 210
-166 33 -20 87 -57 120 -81 33 -25 125 -88 205 -141 80 -53 163 -111 185 -129
62 -50 193 -112 265 -126 65 -11 224 -15 290 -5 126 17 265 65 367 125 74 43
252 216 320 311 96 133 212 372 279 578 75 228 94 319 94 467 2 265 -60 458
-184 572 l-60 56 49 40 c84 68 313 304 372 384 55 74 56 78 65 167 15 142 11
447 -8 546 -27 148 -81 248 -198 368 -124 129 -279 219 -510 298 -71 24 -138
46 -150 48 -12 2 -57 13 -101 25 -44 11 -96 23 -115 25 -19 3 -84 12 -145 21
-106 15 -242 31 -335 40 -98 9 -687 12 -890 5z m1230 -194 c14 -3 70 -12 125
-21 105 -16 136 -22 275 -56 261 -63 483 -220 570 -400 44 -94 75 -203 84
-300 11 -117 15 -434 6 -464 -14 -44 -281 -306 -408 -399 l-53 -38 -167 85
c-92 47 -211 101 -265 121 -53 20 -129 51 -169 67 -120 51 -231 87 -258 84
-14 -2 -52 -6 -84 -10 -33 -4 -82 -15 -110 -25 -28 -9 -54 -18 -59 -18 -74
-13 -247 -98 -342 -169 -208 -157 -332 -308 -453 -549 -56 -113 -129 -300
-148 -380 -9 -38 -18 -78 -21 -89 -2 -11 -7 -61 -10 -111 l-6 -90 -131 -52
c-410 -161 -551 -212 -836 -307 -438 -145 -467 -154 -534 -171 -72 -18 -391
-116 -483 -148 -127 -45 -411 -119 -868 -227 -71 -16 -164 -39 -205 -50 -42
-10 -96 -23 -120 -28 -25 -5 -118 -28 -208 -50 -89 -23 -182 -46 -205 -50 -23
-5 -76 -16 -117 -26 -41 -9 -149 -29 -240 -45 -91 -16 -214 -37 -275 -48 -60
-11 -153 -26 -206 -33 l-96 -12 -54 35 c-267 172 -462 267 -603 294 -49 9
-224 6 -296 -5 -266 -42 -456 -114 -608 -229 -88 -67 -239 -233 -294 -324 -21
-33 -39 -62 -40 -64 -10 -10 -350 -28 -513 -27 -490 2 -696 29 -777 101 -16
13 -18 36 -18 188 0 190 10 275 47 404 122 428 260 700 477 943 163 183 216
221 511 370 243 122 534 263 605 292 30 13 98 42 150 65 225 100 402 175 660
280 101 41 430 181 645 275 151 65 397 192 534 274 53 32 101 60 107 62 5 2
43 24 83 49 271 169 411 277 510 397 l54 65 110 -7 c136 -9 174 -13 212 -25
17 -5 57 -14 90 -20 89 -17 191 -54 347 -126 323 -148 511 -295 699 -545 174
-230 253 -412 343 -784 55 -227 86 -299 147 -344 75 -56 265 -80 396 -51 100
22 507 162 520 178 20 27 56 198 69 332 2 30 9 93 14 140 16 145 22 279 25
547 4 287 -9 444 -51 658 -48 239 -95 352 -201 482 -34 42 -34 42 -11 47 51
11 178 26 263 31 50 2 122 7 160 9 39 3 117 8 175 11 58 3 128 8 155 10 59 6
262 14 535 21 107 3 197 8 200 11 7 7 607 -3 640 -11z m-2350 -106 c118 -77
254 -351 279 -560 6 -52 13 -104 15 -115 9 -50 16 -119 22 -230 3 -66 8 -123
10 -126 6 -10 5 -406 -1 -469 -3 -30 -8 -70 -11 -89 -3 -19 -8 -53 -10 -75 -3
-23 -7 -57 -9 -76 -4 -32 -7 -60 -19 -190 -8 -84 -24 -189 -30 -198 -3 -5 -16
-12 -28 -15 -13 -2 -95 -24 -183 -47 -242 -64 -255 -67 -328 -69 -117 -4 -157
22 -171 109 -3 19 -13 80 -21 135 -15 93 -36 192 -86 419 -11 48 -18 90 -15
93 6 7 157 -77 221 -122 28 -20 68 -48 90 -63 88 -59 205 -155 307 -251 99
-93 148 -122 148 -88 -1 21 -125 187 -206 275 -124 135 -305 262 -485 340 -53
23 -102 42 -108 42 -6 0 -21 21 -32 47 -49 114 -193 326 -278 408 -23 21 -41
44 -41 50 0 18 72 174 115 250 22 39 49 87 61 109 64 118 249 314 374 397 107
71 138 87 225 116 84 28 146 26 195 -7z m2180 -1345 c25 -8 112 -46 193 -82
114 -52 143 -69 128 -75 -11 -4 -71 -16 -133 -27 -284 -52 -499 -179 -716
-421 -272 -305 -392 -633 -352 -964 12 -103 52 -256 89 -339 11 -27 17 -47 13
-45 -5 1 -79 50 -165 107 -133 89 -160 111 -177 147 -12 23 -23 52 -25 65 -3
13 -10 47 -16 76 -8 33 -10 102 -6 195 15 371 169 729 433 1007 169 178 281
264 416 318 158 64 224 72 318 38z m601 -310 c127 -34 253 -141 313 -268 58
-123 71 -184 70 -332 0 -191 -35 -338 -142 -600 -61 -150 -79 -185 -171 -322
-76 -115 -245 -303 -271 -303 -6 0 -25 -9 -41 -20 -32 -23 -158 -77 -198 -85
-247 -49 -363 -39 -571 50 -115 49 -165 104 -250 270 -64 127 -85 235 -85 440
0 104 4 153 17 190 9 28 26 84 38 125 12 41 48 122 79 180 31 58 58 110 60
115 11 26 126 168 187 230 79 80 236 187 341 233 79 34 266 87 359 101 82 13
210 10 265 -4z m-9705 -620 c76 -18 221 -84 248 -114 l19 -21 -84 -1 c-109 -1
-131 -5 -264 -46 -118 -37 -358 -171 -452 -253 -60 -53 -163 -184 -201 -258
-52 -100 -126 -275 -140 -332 -6 -25 -16 -94 -22 -154 -19 -209 27 -445 122
-628 18 -35 34 -66 36 -71 6 -12 -90 28 -243 102 -128 62 -142 71 -159 107
-28 59 -45 111 -62 189 -25 119 -29 155 -28 305 1 131 4 155 32 255 37 130
139 338 214 440 112 151 308 315 477 400 154 78 370 112 507 80z m231 -374
c-97 -108 -200 -278 -250 -413 -37 -97 -85 -312 -86 -383 -1 -36 -5 -43 -33
-57 -215 -103 -361 -192 -403 -245 -27 -34 -30 -45 -30 -108 0 -69 31 -178 60
-215 7 -8 25 -37 40 -63 15 -27 50 -73 77 -103 28 -30 47 -54 42 -54 -4 0 -41
17 -82 37 -96 49 -204 155 -250 248 -57 114 -75 201 -74 362 1 175 11 233 67
386 50 138 102 220 214 339 111 118 223 191 391 256 72 27 239 60 313 61 l49
1 -45 -49z m-341 -1038 c2 -59 10 -166 19 -236 9 -71 15 -130 13 -133 -2 -2
-66 28 -141 66 -76 39 -144 70 -153 70 -8 0 -24 5 -34 10 -18 10 -18 11 0 65
28 80 60 116 171 191 55 37 103 72 106 76 11 19 15 -5 19 -109z m2688 11 c81
-11 213 -76 383 -186 288 -188 406 -284 448 -368 64 -127 85 -230 86 -429 1
-176 -12 -249 -67 -394 -136 -358 -346 -642 -579 -784 -55 -33 -122 -72 -150
-86 -71 -35 -236 -86 -294 -91 -58 -5 -187 27 -300 73 -41 17 -79 31 -85 31
-23 1 -180 71 -259 116 -45 26 -125 80 -178 120 -141 106 -195 195 -236 386
-22 104 -25 382 -5 473 15 66 85 286 111 350 44 108 135 277 180 335 28 36 70
90 93 121 48 64 176 167 275 221 80 44 192 83 283 98 36 6 88 15 115 19 47 9
90 7 179 -5z m-2934 -334 c118 -85 137 -98 194 -129 32 -18 79 -45 105 -60 99
-58 391 -200 496 -240 61 -23 128 -51 151 -61 67 -32 221 -89 354 -131 202
-64 218 -69 233 -69 12 0 14 -18 10 -107 -3 -60 -7 -109 -8 -111 -5 -6 -405
145 -500 188 -11 5 -76 32 -145 61 -167 68 -409 188 -549 271 -63 37 -117 68
-120 68 -3 1 -44 27 -91 59 -75 51 -89 65 -122 127 -44 82 -81 174 -70 174 4
0 32 -18 62 -40z m1630 -363 c0 -5 -11 -40 -24 -76 -13 -37 -26 -80 -29 -97
-9 -54 -19 -104 -22 -104 -1 0 -39 18 -84 40 -45 22 -85 40 -89 40 -4 0 -20 7
-37 16 -16 9 -104 45 -195 81 -274 108 -278 100 41 97 151 -1 303 1 339 4 88
9 100 9 100 -1z"/>
<path d="M10200 8727 c-3 -3 -57 -8 -120 -12 -63 -3 -122 -8 -130 -10 -8 -2
-40 -7 -70 -10 -30 -4 -57 -8 -60 -10 -3 -2 -62 -11 -130 -19 -192 -25 -462
-86 -523 -118 -27 -14 -15 -21 71 -40 65 -15 108 -17 277 -12 110 3 214 7 230
9 17 1 64 6 105 9 41 3 98 8 125 11 28 3 84 7 125 10 68 5 136 12 300 30 30 4
84 8 120 11 36 2 94 6 128 9 104 8 364 19 409 17 38 -1 75 19 60 34 -8 9 -198
52 -257 58 -59 7 -97 12 -145 22 -39 7 -509 18 -515 11z"/>
<path d="M5410 7141 c-47 -15 -179 -63 -295 -105 -115 -43 -253 -94 -305 -113
-160 -58 -190 -69 -345 -129 -245 -95 -553 -258 -896 -477 -210 -134 -522
-369 -591 -445 -72 -80 -74 -123 -3 -72 78 57 288 195 345 227 19 11 91 53
160 93 69 41 186 106 260 145 74 39 155 83 180 97 25 14 79 44 120 67 76 43
435 221 630 313 58 27 119 56 135 64 50 24 192 83 335 139 275 108 324 135
355 195 18 36 22 36 -85 1z"/>
<path d="M10673 7240 c-150 -32 -283 -93 -363 -167 -114 -105 -236 -322 -267
-473 -19 -94 -26 -299 -13 -365 18 -88 61 -209 85 -241 30 -39 166 -131 213
-143 95 -25 278 -14 379 23 84 30 259 127 320 176 158 128 274 418 274 684 0
157 -41 255 -147 357 -106 100 -207 144 -351 153 -48 3 -107 1 -130 -4z m271
-150 c196 -100 274 -336 191 -581 -62 -180 -219 -368 -380 -452 -174 -92 -295
-104 -449 -47 -96 36 -151 145 -162 320 -5 77 -2 97 29 206 62 212 137 344
259 461 98 92 207 131 358 129 76 -1 93 -5 154 -36z"/>
<path d="M10575 6733 c-48 -25 -116 -94 -136 -140 -29 -63 -35 -145 -14 -180
23 -39 105 -68 164 -58 102 17 185 116 185 221 0 70 -27 135 -63 157 -36 21
-96 21 -136 0z m85 -83 c33 -18 36 -73 6 -124 -26 -44 -42 -56 -85 -61 -42 -6
-71 12 -71 42 1 46 41 115 80 135 40 21 45 21 70 8z"/>
<path d="M3970 5236 c-154 -49 -280 -114 -382 -198 -151 -125 -339 -432 -412
-673 -52 -170 -86 -344 -86 -436 0 -165 47 -376 106 -477 41 -69 149 -174 175
-170 32 4 33 20 4 54 -49 57 -123 215 -141 304 -23 118 -15 318 20 450 52 199
86 297 133 385 41 76 171 261 225 320 76 83 234 210 306 246 69 34 301 114
360 124 71 12 67 52 -5 73 -21 6 -81 13 -133 16 -82 5 -105 3 -170 -18z"/>
<path d="M4080 4924 c-180 -49 -345 -174 -455 -344 -172 -265 -235 -570 -165
-789 28 -88 118 -211 186 -257 92 -60 124 -68 274 -68 158 0 204 14 316 93
249 177 397 468 411 811 10 236 -55 406 -194 501 -86 60 -259 84 -373 53z
m109 -174 c91 -13 158 -48 217 -113 59 -66 74 -99 84 -187 14 -123 1 -227 -42
-355 -55 -160 -96 -222 -257 -384 -77 -77 -108 -101 -154 -118 -129 -51 -310
-9 -390 89 -47 58 -63 92 -81 172 -20 84 -20 148 -1 256 46 261 162 461 338
582 97 66 152 77 286 58z"/>
<path d="M3990 4462 c-125 -34 -230 -179 -230 -318 0 -111 55 -165 182 -180
108 -13 190 43 247 166 38 82 43 145 17 234 -15 52 -21 59 -59 76 -49 21 -121
31 -157 22z m96 -116 c24 -20 28 -33 32 -88 3 -51 0 -73 -16 -104 -35 -69 -88
-104 -156 -104 -45 0 -80 30 -95 80 -10 35 -10 49 3 88 21 62 51 96 111 126
63 32 87 32 121 2z"/>
</g>
</svg>
